<svg id="visual" viewBox="0 0 900 600" width="900" height="600" xmlns="http://www.w3.org/2000/svg" xmlns:xlink="http://www.w3.org/1999/xlink" version="1.1"><rect x="0" y="0" width="900" height="600" fill="#FF6F61"></rect><defs><linearGradient id="grad1_0" x1="33.3%" y1="0%" x2="100%" y2="100%"><stop offset="20%" stop-color="#f35749" stop-opacity="1"></stop><stop offset="80%" stop-color="#f35749" stop-opacity="1"></stop></linearGradient></defs><defs><linearGradient id="grad1_1" x1="33.3%" y1="0%" x2="100%" y2="100%"><stop offset="20%" stop-color="#f35749" stop-opacity="1"></stop><stop offset="80%" stop-color="#f75f51" stop-opacity="1"></stop></linearGradient></defs><defs><linearGradient id="grad1_2" x1="33.3%" y1="0%" x2="100%" y2="100%"><stop offset="20%" stop-color="#fb6759" stop-opacity="1"></stop><stop offset="80%" stop-color="#f75f51" stop-opacity="1"></stop></linearGradient></defs><defs><linearGradient id="grad1_3" x1="33.3%" y1="0%" x2="100%" y2="100%"><stop offset="20%" stop-color="#fb6759" stop-opacity="1"></stop><stop offset="80%" stop-color="#ff6f61" stop-opacity="1"></stop></linearGradient></defs><defs><linearGradient id="grad2_0" x1="0%" y1="0%" x2="66.7%" y2="100%"><stop offset="20%" stop-color="#f35749" stop-opacity="1"></stop><stop offset="80%" stop-color="#f35749" stop-opacity="1"></stop></linearGradient></defs><defs><linearGradient id="grad2_1" x1="0%" y1="0%" x2="66.7%" y2="100%"><stop offset="20%" stop-color="#f75f51" stop-opacity="1"></stop><stop offset="80%" stop-color="#f35749" stop-opacity="1"></stop></linearGradient></defs><defs><linearGradient id="grad2_2" x1="0%" y1="0%" x2="66.7%" y2="100%"><stop offset="20%" stop-color="#f75f51" stop-opacity="1"></stop><stop offset="80%" stop-color="#fb6759" stop-opacity="1"></stop></linearGradient></defs><defs><linearGradient id="grad2_3" x1="0%" y1="0%" x2="66.7%" y2="100%"><stop offset="20%" stop-color="#ff6f61" stop-opacity="1"></stop><stop offset="80%" stop-color="#fb6759" stop-opacity="1"></stop></linearGradient></defs><g transform="translate(900, 0)"><path d="M0 351.5C-40.7 340.1 -81.3 328.7 -130.9 316C-180.4 303.3 -238.9 289.3 -248.6 248.6C-258.3 207.9 -219.2 140.4 -228.2 94.5C-237.2 48.6 -294.4 24.3 -351.5 0L0 0Z" fill="#fd6b5d"></path><path d="M0 263.7C-30.5 255.1 -61 246.5 -98.2 237C-135.3 227.4 -179.2 217 -186.4 186.4C-193.7 155.9 -164.4 105.3 -171.1 70.9C-177.9 36.5 -220.8 18.2 -263.7 0L0 0Z" fill="#f96355"></path><path d="M0 175.8C-20.3 170.1 -40.7 164.3 -65.4 158C-90.2 151.6 -119.4 144.6 -124.3 124.3C-129.1 103.9 -109.6 70.2 -114.1 47.3C-118.6 24.3 -147.2 12.2 -175.8 0L0 0Z" fill="#f55b4d"></path><path d="M0 87.9C-10.2 85 -20.3 82.2 -32.7 79C-45.1 75.8 -59.7 72.3 -62.1 62.1C-64.6 52 -54.8 35.1 -57 23.6C-59.3 12.2 -73.6 6.1 -87.9 0L0 0Z" fill="#f35749"></path></g><g transform="translate(0, 600)"><path d="M0 -351.5C47.1 -348.8 94.2 -346.2 134.5 -324.8C174.9 -303.4 208.4 -263.4 222.7 -222.7C237.1 -182.1 232.1 -140.9 250.4 -103.7C268.6 -66.5 310.1 -33.2 351.5 0L0 0Z" fill="#fd6b5d"></path><path d="M0 -263.7C35.3 -261.6 70.6 -259.6 100.9 -243.6C131.1 -227.6 156.3 -197.5 167.1 -167.1C177.8 -136.6 174.1 -105.7 187.8 -77.8C201.5 -49.9 232.6 -24.9 263.7 0L0 0Z" fill="#f96355"></path><path d="M0 -175.8C23.5 -174.4 47.1 -173.1 67.3 -162.4C87.4 -151.7 104.2 -131.7 111.4 -111.4C118.5 -91.1 116.1 -70.5 125.2 -51.9C134.3 -33.2 155 -16.6 175.8 0L0 0Z" fill="#f55b4d"></path><path d="M0 -87.9C11.8 -87.2 23.5 -86.5 33.6 -81.2C43.7 -75.9 52.1 -65.8 55.7 -55.7C59.3 -45.5 58 -35.2 62.6 -25.9C67.2 -16.6 77.5 -8.3 87.9 0L0 0Z" fill="#f35749"></path></g></svg>